<svg width="512" height="512" version="1.1" xmlns="http://www.w3.org/2000/svg" desc="Created with imagetracer.js version 1.2.6" ><path fill="rgb(23,118,242)" stroke="rgb(23,118,242)" stroke-width="1" opacity="0.5098039215686274" d="M 251.5 12 L 261 12.5 L 251.5 13 L 251.5 12 Z " /><path fill="rgb(23,118,242)" stroke="rgb(23,118,242)" stroke-width="1" opacity="0.5098039215686274" d="M 236.5 13 L 246 13.5 L 236.5 14 L 236.5 13 Z " /><path fill="rgb(23,118,242)" stroke="rgb(23,118,242)" stroke-width="1" opacity="0.5098039215686274" d="M 266.5 13 L 276 13.5 L 266.5 14 L 266.5 13 Z " /><path fill="rgb(23,118,242)" stroke="rgb(23,118,242)" stroke-width="1" opacity="0.5098039215686274" d="M 227.5 14 L 234 14.5 L 227.5 15 L 227.5 14 Z " /><path fill="rgb(23,118,242)" stroke="rgb(23,118,242)" stroke-width="1" opacity="0.5098039215686274" d="M 278.5 14 L 285 14.5 L 278.5 15 L 278.5 14 Z " /><path fill="rgb(23,118,242)" stroke="rgb(23,118,242)" stroke-width="1" opacity="0.5098039215686274" d="M 220.5 15 L 225 15.5 L 220.5 16 L 220.5 15 Z " /><path fill="rgb(23,118,242)" stroke="rgb(23,118,242)" stroke-width="1" opacity="0.5098039215686274" d="M 287.5 15 L 292 15.5 L 287.5 16 L 287.5 15 Z " /><path fill="rgb(23,118,242)" stroke="rgb(23,118,242)" stroke-width="1" opacity="0.5098039215686274" d="M 213.5 16 L 218 16.5 L 213.5 17 L 213.5 16 Z " /><path fill="rgb(23,118,242)" stroke="rgb(23,118,242)" stroke-width="1" opacity="0.5098039215686274" d="M 294.5 16 L 299 16.5 L 294.5 17 L 294.5 16 Z " /><path fill="rgb(23,118,242)" stroke="rgb(23,118,242)" stroke-width="1" opacity="0.5098039215686274" d="M 208.5 17 L 212 17.5 L 208.5 18 L 208.5 17 Z " /><path fill="rgb(23,118,242)" stroke="rgb(23,118,242)" stroke-width="1" opacity="0.5098039215686274" d="M 300.5 17 L 304 17.5 L 300.5 18 L 300.5 17 Z " /><path fill="rgb(23,118,242)" stroke="rgb(23,118,242)" stroke-width="1" opacity="0.5098039215686274" d="M 203.5 18 L 207 18.5 L 203.5 19 L 203.5 18 Z " /><path fill="rgb(23,118,242)" stroke="rgb(23,118,242)" stroke-width="1" opacity="0.5098039215686274" d="M 305.5 18 L 309 18.5 L 305.5 19 L 305.5 18 Z " /><path fill="rgb(23,118,242)" stroke="rgb(23,118,242)" stroke-width="1" opacity="0.5098039215686274" d="M 198.5 19 L 202 19.5 L 187.5 23 L 187.5 22 L 198.5 19 Z " /><path fill="rgb(23,118,242)" stroke="rgb(23,118,242)" stroke-width="1" opacity="0.5098039215686274" d="M 310.5 19 L 318 20.5 L 314.5 21 L 310.5 20 L 310.5 19 Z " /><path fill="rgb(23,118,242)" stroke="rgb(23,118,242)" stroke-width="1" opacity="0.5098039215686274" d="M 319.5 21 L 325 22.5 L 322.5 23 L 319.5 22 L 319.5 21 Z " /><path fill="rgb(23,118,242)" stroke="rgb(23,118,242)" stroke-width="1" opacity="0.5098039215686274" d="M 183.5 23 L 186 23.5 L 180.5 25 L 180.5 24 L 183.5 23 Z " /><path fill="rgb(23,118,242)" stroke="rgb(23,118,242)" stroke-width="1" opacity="0.5098039215686274" d="M 326.5 23 L 332 24.5 L 329.5 25 L 326.5 24 L 326.5 23 Z " /><path fill="rgb(23,118,242)" stroke="rgb(23,118,242)" stroke-width="1" opacity="0.5098039215686274" d="M 168.5 28 L 170 28.5 L 147.5 38 L 147.5 37 L 168.5 28 Z " /><path fill="rgb(23,118,242)" stroke="rgb(23,118,242)" stroke-width="1" opacity="0.5098039215686274" d="M 342.5 28 L 349 30.5 L 347.5 31 L 342.5 29 L 342.5 28 Z " /><path fill="rgb(23,118,242)" stroke="rgb(23,118,242)" stroke-width="1" opacity="0.5098039215686274" d="M 350.5 31 L 354 32.5 L 352.5 33 L 350.5 31 Z " /><path fill="rgb(23,118,242)" stroke="rgb(23,118,242)" stroke-width="1" opacity="0.5098039215686274" d="M 355.5 33 L 365 37.5 L 363.5 38 L 355.5 34 L 355.5 33 Z " /><path fill="rgb(23,118,242)" stroke="rgb(23,118,242)" stroke-width="1" opacity="0.5098039215686274" d="M 144.5 38 L 146 38.5 L 143.5 40 L 144.5 38 Z " /><path fill="rgb(23,118,242)" stroke="rgb(23,118,242)" stroke-width="1" opacity="0.5098039215686274" d="M 366.5 38 L 369 39.5 L 367.5 39 L 366.5 38 Z " /><path fill="rgb(23,118,242)" stroke="rgb(23,118,242)" stroke-width="1" opacity="0.5098039215686274" d="M 141.5 40 L 140.5 42 Q 103.1 60.1 77 89.5 Q 50.9 117.4 34.5 155 L 34 153.5 Q 55.3 106.3 91.5 74 Q 113.3 53.8 141.5 40 Z " /><path fill="rgb(23,118,242)" stroke="rgb(23,118,242)" stroke-width="1" opacity="0.5098039215686274" d="M 372.5 41 Q 410.9 60.6 438 91.5 Q 454.7 109.8 467 132.5 L 465 131.5 Q 447.7 99.3 421.5 76 L 396.5 56 L 373.5 43 L 372.5 41 Z " /><path fill="rgb(23,118,242)" stroke="rgb(23,118,242)" stroke-width="1" opacity="0.5098039215686274" d="M 467.5 134 L 478 154.5 L 477 154.5 L 467.5 134 Z " /><path fill="rgb(23,118,242)" stroke="rgb(23,118,242)" stroke-width="1" opacity="0.5098039215686274" d="M 33.5 156 L 34 157.5 L 28.5 170 L 28 168.5 L 33.5 156 Z " /><path fill="rgb(23,118,242)" stroke="rgb(23,118,242)" stroke-width="1" opacity="0.5098039215686274" d="M 478.5 156 L 485 172.5 L 484 172.5 L 478.5 156 Z " /><path fill="rgb(23,118,242)" stroke="rgb(23,118,242)" stroke-width="1" opacity="0.5098039215686274" d="M 26.5 174 L 27 175.5 L 25.5 179 L 25 176.5 L 26.5 174 Z " /><path fill="rgb(23,118,242)" stroke="rgb(23,118,242)" stroke-width="1" opacity="0.5098039215686274" d="M 23.5 183 L 24 185.5 L 22.5 189 L 22 186.5 L 23.5 183 Z " /><path fill="rgb(23,118,242)" stroke="rgb(23,118,242)" stroke-width="1" opacity="0.5098039215686274" d="M 488.5 183 L 490 188.5 L 489 188.5 L 488.5 183 Z " /><path fill="rgb(23,118,242)" stroke="rgb(23,118,242)" stroke-width="1" opacity="0.5098039215686274" d="M 21.5 190 L 22 192.5 L 21 192.5 L 21.5 190 Z " /><path fill="rgb(23,118,242)" stroke="rgb(23,118,242)" stroke-width="1" opacity="0.5098039215686274" d="M 490.5 190 L 491 192.5 L 490 192.5 L 490.5 190 Z " /><path fill="rgb(23,118,242)" stroke="rgb(23,118,242)" stroke-width="1" opacity="0.5098039215686274" d="M 20.5 194 L 21 196.5 L 20 196.5 L 20.5 194 Z " /><path fill="rgb(23,118,242)" stroke="rgb(23,118,242)" stroke-width="1" opacity="0.5098039215686274" d="M 491.5 194 L 492 196.5 L 491 196.5 L 491.5 194 Z " /><path fill="rgb(23,118,242)" stroke="rgb(23,118,242)" stroke-width="1" opacity="0.5098039215686274" d="M 19.5 198 L 20 200.5 L 19 200.5 L 19.5 198 Z " /><path fill="rgb(23,118,242)" stroke="rgb(23,118,242)" stroke-width="1" opacity="0.5098039215686274" d="M 492.5 198 L 493 200.5 L 492 200.5 L 492.5 198 Z " /><path fill="rgb(23,118,242)" stroke="rgb(23,118,242)" stroke-width="1" opacity="0.5098039215686274" d="M 18.5 202 L 19 205.5 L 18 205.5 L 18.5 202 Z " /><path fill="rgb(23,118,242)" stroke="rgb(23,118,242)" stroke-width="1" opacity="0.5098039215686274" d="M 493.5 202 L 494 205.5 L 493 205.5 L 493.5 202 Z " /><path fill="rgb(23,118,242)" stroke="rgb(23,118,242)" stroke-width="1" opacity="0.5098039215686274" d="M 17.5 207 L 18 210.5 L 17 210.5 L 17.5 207 Z " /><path fill="rgb(23,118,242)" stroke="rgb(23,118,242)" stroke-width="1" opacity="0.5098039215686274" d="M 494.5 207 L 495 210.5 L 494 210.5 L 494.5 207 Z " /><path fill="rgb(23,118,242)" stroke="rgb(23,118,242)" stroke-width="1" opacity="0.5098039215686274" d="M 16.5 212 L 17 215.5 L 16 215.5 L 16.5 212 Z " /><path fill="rgb(23,118,242)" stroke="rgb(23,118,242)" stroke-width="1" opacity="0.5098039215686274" d="M 495.5 212 L 496 216.5 L 495 216.5 L 495.5 212 Z " /><path fill="rgb(23,118,242)" stroke="rgb(23,118,242)" stroke-width="1" opacity="0.5098039215686274" d="M 15.5 218 L 16 222.5 L 15 222.5 L 15.5 218 Z " /><path fill="rgb(23,118,242)" stroke="rgb(23,118,242)" stroke-width="1" opacity="0.5098039215686274" d="M 496.5 218 L 497 222.5 L 496 222.5 L 496.5 218 Z " /><path fill="rgb(23,118,242)" stroke="rgb(23,118,242)" stroke-width="1" opacity="0.5098039215686274" d="M 14.5 225 L 15 231.5 L 14 231.5 L 14.5 225 Z " /><path fill="rgb(23,118,242)" stroke="rgb(23,118,242)" stroke-width="1" opacity="0.5098039215686274" d="M 497.5 225 L 498 231.5 L 497 231.5 L 497.5 225 Z " /><path fill="rgb(23,118,242)" stroke="rgb(23,118,242)" stroke-width="1" opacity="0.5098039215686274" d="M 13.5 234 L 14 243.5 L 13 243.5 L 13.5 234 Z " /><path fill="rgb(23,118,242)" stroke="rgb(23,118,242)" stroke-width="1" opacity="0.5098039215686274" d="M 498.5 234 L 499 243.5 L 498 243.5 L 498.5 234 Z " /><path fill="rgb(23,118,242)" stroke="rgb(23,118,242)" stroke-width="1" opacity="0.5098039215686274" d="M 12.5 249 L 13 267.5 L 12 267.5 L 12.5 249 Z " /><path fill="rgb(23,118,242)" stroke="rgb(23,118,242)" stroke-width="1" opacity="0.5098039215686274" d="M 499.5 249 L 500 266.5 L 499 266.5 L 499.5 249 Z " /><path fill="rgb(23,118,242)" stroke="rgb(23,118,242)" stroke-width="1" opacity="0.5098039215686274" d="M 13.5 273 L 14 282.5 L 13 282.5 L 13.5 273 Z " /><path fill="rgb(23,118,242)" stroke="rgb(23,118,242)" stroke-width="1" opacity="0.5098039215686274" d="M 498.5 273 L 499 282.5 L 498 282.5 L 498.5 273 Z " /><path fill="rgb(23,118,242)" stroke="rgb(23,118,242)" stroke-width="1" opacity="0.5098039215686274" d="M 497.5 285 L 498 291.5 L 497 291.5 L 497.5 285 Z " /><path fill="rgb(23,118,242)" stroke="rgb(23,118,242)" stroke-width="1" opacity="0.5098039215686274" d="M 14.5 286 L 15 292.5 L 14 292.5 L 14.5 286 Z " /><path fill="rgb(23,118,242)" stroke="rgb(23,118,242)" stroke-width="1" opacity="0.5098039215686274" d="M 15.5 294 L 16 298.5 L 15 298.5 L 15.5 294 Z " /><path fill="rgb(23,118,242)" stroke="rgb(23,118,242)" stroke-width="1" opacity="0.5098039215686274" d="M 496.5 294 L 497 298.5 L 496 298.5 L 496.5 294 Z " /><path fill="rgb(23,118,242)" stroke="rgb(23,118,242)" stroke-width="1" opacity="0.5098039215686274" d="M 495.5 300 L 496 304.5 L 495 304.5 L 495.5 300 Z " /><path fill="rgb(23,118,242)" stroke="rgb(23,118,242)" stroke-width="1" opacity="0.5098039215686274" d="M 16.5 301 L 17 304.5 L 16 304.5 L 16.5 301 Z " /><path fill="rgb(23,118,242)" stroke="rgb(23,118,242)" stroke-width="1" opacity="0.5098039215686274" d="M 17.5 306 L 18 309.5 L 17 309.5 L 17.5 306 Z " /><path fill="rgb(23,118,242)" stroke="rgb(23,118,242)" stroke-width="1" opacity="0.5098039215686274" d="M 494.5 306 L 495 309.5 L 494 309.5 L 494.5 306 Z " /><path fill="rgb(23,118,242)" stroke="rgb(23,118,242)" stroke-width="1" opacity="0.5098039215686274" d="M 18.5 311 L 19 314.5 L 18 314.5 L 18.5 311 Z " /><path fill="rgb(23,118,242)" stroke="rgb(23,118,242)" stroke-width="1" opacity="0.5098039215686274" d="M 493.5 311 L 494 314.5 L 493 314.5 L 493.5 311 Z " /><path fill="rgb(23,118,242)" stroke="rgb(23,118,242)" stroke-width="1" opacity="0.5098039215686274" d="M 19.5 316 L 20 318.5 L 19 318.5 L 19.5 316 Z " /><path fill="rgb(23,118,242)" stroke="rgb(23,118,242)" stroke-width="1" opacity="0.5098039215686274" d="M 492.5 316 L 493 318.5 L 492 318.5 L 492.5 316 Z " /><path fill="rgb(23,118,242)" stroke="rgb(23,118,242)" stroke-width="1" opacity="0.5098039215686274" d="M 20.5 320 L 21 322.5 L 20 322.5 L 20.5 320 Z " /><path fill="rgb(23,118,242)" stroke="rgb(23,118,242)" stroke-width="1" opacity="0.5098039215686274" d="M 491.5 320 L 492 322.5 L 491 322.5 L 491.5 320 Z " /><path fill="rgb(23,118,242)" stroke="rgb(23,118,242)" stroke-width="1" opacity="0.5098039215686274" d="M 21.5 324 L 22 326.5 L 21 326.5 L 21.5 324 Z " /><path fill="rgb(23,118,242)" stroke="rgb(23,118,242)" stroke-width="1" opacity="0.5098039215686274" d="M 490.5 324 L 491 326.5 L 490 326.5 L 490.5 324 Z " /><path fill="rgb(23,118,242)" stroke="rgb(23,118,242)" stroke-width="1" opacity="0.5098039215686274" d="M 23.5 331 L 29 347.5 L 28 347.5 L 23 333.5 L 23.5 331 Z " /><path fill="rgb(23,118,242)" stroke="rgb(23,118,242)" stroke-width="1" opacity="0.5098039215686274" d="M 488.5 331 L 489 333.5 L 483.5 348 L 483 346.5 L 488.5 331 Z " /><path fill="rgb(23,118,242)" stroke="rgb(23,118,242)" stroke-width="1" opacity="0.5098039215686274" d="M 29.5 349 L 33 357.5 L 32 357.5 L 29.5 349 Z " /><path fill="rgb(23,118,242)" stroke="rgb(23,118,242)" stroke-width="1" opacity="0.5098039215686274" d="M 482.5 349 L 483 350.5 L 479.5 358 L 479 356.5 L 482.5 349 Z " /><path fill="rgb(23,118,242)" stroke="rgb(23,118,242)" stroke-width="1" opacity="0.5098039215686274" d="M 33.5 359 Q 40.5 377 51 391.5 L 49 390.5 L 33 360.5 L 33.5 359 Z " /><path fill="rgb(23,118,242)" stroke="rgb(23,118,242)" stroke-width="1" opacity="0.5098039215686274" d="M 478.5 359 L 479 360.5 Q 457.7 407.7 421.5 440 Q 393.7 465.2 356.5 481 L 356.5 480 Q 403.8 459.8 436 424.5 Q 462.3 396.8 478.5 359 Z " /><path fill="rgb(23,118,242)" stroke="rgb(23,118,242)" stroke-width="1" opacity="0.5098039215686274" d="M 51.5 393 Q 67.4 417.6 88.5 437 Q 117.2 463.8 156 480.5 L 154.5 481 Q 106.1 459.4 73 422.5 Q 59.6 408.7 51.5 393 Z " /><path fill="rgb(23,118,242)" stroke="rgb(23,118,242)" stroke-width="1" opacity="0.5098039215686274" d="M 157.5 481 L 166 484.5 L 164.5 485 L 157.5 482 L 157.5 481 Z " /><path fill="rgb(23,118,242)" stroke="rgb(23,118,242)" stroke-width="1" opacity="0.5098039215686274" d="M 353.5 481 L 355 481.5 L 346.5 485 L 346.5 484 L 353.5 481 Z " /><path fill="rgb(23,118,242)" stroke="rgb(23,118,242)" stroke-width="1" opacity="0.5098039215686274" d="M 167.5 485 L 174 487.5 L 172.5 488 L 167.5 486 L 167.5 485 Z " /><path fill="rgb(23,118,242)" stroke="rgb(23,118,242)" stroke-width="1" opacity="0.5098039215686274" d="M 343.5 485 L 345 485.5 L 338.5 488 L 338.5 487 L 343.5 485 Z " /><path fill="rgb(23,118,242)" stroke="rgb(23,118,242)" stroke-width="1" opacity="0.5098039215686274" d="M 181.5 490 L 190 492.5 L 187.5 493 L 181.5 491 L 181.5 490 Z " /><path fill="rgb(23,118,242)" stroke="rgb(23,118,242)" stroke-width="1" opacity="0.5098039215686274" d="M 325.5 491 L 328 491.5 L 322.5 493 L 322.5 492 L 325.5 491 Z " /><path fill="rgb(23,118,242)" stroke="rgb(23,118,242)" stroke-width="1" opacity="0.5098039215686274" d="M 191.5 493 L 194 493.5 L 191.5 494 L 191.5 493 Z " /><path fill="rgb(23,118,242)" stroke="rgb(23,118,242)" stroke-width="1" opacity="0.5098039215686274" d="M 318.5 493 L 321 493.5 L 318.5 494 L 318.5 493 Z " /><path fill="rgb(23,118,242)" stroke="rgb(23,118,242)" stroke-width="1" opacity="0.5098039215686274" d="M 195.5 494 L 206 496.5 L 202.5 497 L 195.5 495 L 195.5 494 Z " /><path fill="rgb(23,118,242)" stroke="rgb(23,118,242)" stroke-width="1" opacity="0.5098039215686274" d="M 314.5 494 L 317 494.5 L 306.5 497 L 306.5 496 L 314.5 494 Z " /><path fill="rgb(23,118,242)" stroke="rgb(23,118,242)" stroke-width="1" opacity="0.5098039215686274" d="M 207.5 497 L 211 497.5 L 207.5 498 L 207.5 497 Z " /><path fill="rgb(23,118,242)" stroke="rgb(23,118,242)" stroke-width="1" opacity="0.5098039215686274" d="M 301.5 497 L 305 497.5 L 297.5 499 L 297.5 498 L 301.5 497 Z " /><path fill="rgb(23,118,242)" stroke="rgb(23,118,242)" stroke-width="1" opacity="0.5098039215686274" d="M 212.5 498 L 216 498.5 L 212.5 499 L 212.5 498 Z " /><path fill="rgb(24,119,241)" stroke="rgb(24,119,241)" stroke-width="1" opacity="1" d="M 155.5 258 L 156 327.5 L 155 327.5 L 155.5 258 Z " /><path fill="rgb(0,0,0)" stroke="rgb(0,0,0)" stroke-width="1" opacity="0" d="M 0 0 L 512 0 L 512 512 L 0 512 L 0 0 Z M 252 12 L 251 13 L 237 13 L 236 14 L 214 16 L 191 21 L 166 29 Q 123 46 92 74 Q 55 106 34 154 L 25 177 L 18 203 L 14 226 L 13 249 L 12 250 L 12 268 L 13 269 L 14 293 L 18 315 L 27 346 Q 44 390 73 423 Q 125 482 218 500 L 295 500 L 325 493 Q 382 476 422 440 Q 458 408 479 361 Q 488 339 494 315 L 498 292 L 499 268 L 500 267 L 499 235 L 498 234 L 496 213 Q 491 187 483 166 Q 466 123 438 92 Q 405 54 357 33 L 329 23 L 299 16 L 277 14 L 276 13 L 252 12 Z " /><path fill="rgb(24,119,242)" stroke="rgb(24,119,242)" stroke-width="1" opacity="1" d="M 246.5 13 L 265.5 13 L 266.5 14 L 277.5 14 L 278.5 15 L 293.5 16 L 318.5 21 L 341.5 28 Q 389.5 45.5 423 77.5 Q 422.3 79.8 424.5 79 L 432 88 L 435 89.5 Q 461.2 117.8 478 155.5 L 485 173.5 L 492 197.5 L 497 223.5 L 498 243.5 L 499 244.5 L 499 246.5 L 499 272.5 L 498 273.5 L 498 284.5 L 497 285.5 L 496 299.5 L 490 327.5 L 483 348.5 Q 462.1 401.6 423.5 437 Q 394.4 463.9 355.5 481 L 328.5 491 L 294 499 L 294 328.5 L 294.5 328 L 351.5 328 Q 352.6 327.9 352 322.5 L 353 321.5 L 355 301.5 L 357 294.5 L 357 288.5 L 358 287.5 L 358 281.5 L 362 257 L 294 257 L 294 210.5 L 294 208.5 L 295 200.5 L 300 188.5 L 308.5 180 L 313.5 177 L 324.5 174 L 365 174 L 365 113.5 L 363.5 113 L 340.5 109 L 306.5 108 L 305.5 109 L 289.5 110 L 270.5 115 L 248.5 127 L 238 137.5 Q 227 150 222 168.5 L 219 181.5 L 218 200.5 L 217 201.5 L 218 204.5 L 218 257 L 156.5 257 L 155 258.5 L 155 328 L 218 328 L 218 499 Q 128.5 481.7 77 425.5 Q 46.3 393.7 29 348.5 L 22 327.5 L 16 300.5 L 15 286.5 L 14 285.5 L 14 272.5 L 13 271.5 L 13 244.5 L 14 243.5 L 15 223.5 L 19 201.5 Q 24.6 176.6 34 155.5 Q 54.6 109.1 89.5 77 Q 117.5 50.5 155.5 34 L 179.5 25 L 202.5 19 L 225.5 15 L 245.5 14 L 246.5 13 Z " /><path fill="rgb(170,201,240)" stroke="rgb(170,201,240)" stroke-width="1" opacity="0.8901960784313725" d="M 307.5 108 L 327 108.5 L 307.5 109 L 307.5 108 Z " /><path fill="rgb(170,201,240)" stroke="rgb(170,201,240)" stroke-width="1" opacity="0.8901960784313725" d="M 296.5 109 L 300 109.5 L 296.5 110 L 296.5 109 Z " /><path fill="rgb(170,201,240)" stroke="rgb(170,201,240)" stroke-width="1" opacity="0.8901960784313725" d="M 335.5 109 L 340 109.5 L 335.5 110 L 335.5 109 Z " /><path fill="rgb(170,201,240)" stroke="rgb(170,201,240)" stroke-width="1" opacity="0.8901960784313725" d="M 289.5 110 L 292 110.5 L 289.5 111 L 289.5 110 Z " /><path fill="rgb(170,201,240)" stroke="rgb(170,201,240)" stroke-width="1" opacity="0.8901960784313725" d="M 345.5 110 L 348 110.5 L 345.5 111 L 345.5 110 Z " /><path fill="rgb(170,201,240)" stroke="rgb(170,201,240)" stroke-width="1" opacity="0.8901960784313725" d="M 359.5 112 L 362 112.5 L 359.5 113 L 359.5 112 Z " /><path fill="rgb(170,201,240)" stroke="rgb(170,201,240)" stroke-width="1" opacity="0.8901960784313725" d="M 254.5 123 L 253.5 125 L 254.5 123 Z " /><path fill="rgb(170,201,240)" stroke="rgb(170,201,240)" stroke-width="1" opacity="0.8901960784313725" d="M 251.5 125 L 250.5 127 L 251.5 125 Z " /><path fill="rgb(170,201,240)" stroke="rgb(170,201,240)" stroke-width="1" opacity="0.8901960784313725" d="M 247.5 128 L 238.5 138 L 247.5 128 Z " /><path fill="rgb(170,201,240)" stroke="rgb(170,201,240)" stroke-width="1" opacity="0.8901960784313725" d="M 327.5 173 L 364 173.5 L 327.5 174 L 327.5 173 Z " /><path fill="rgb(170,201,240)" stroke="rgb(170,201,240)" stroke-width="1" opacity="0.8901960784313725" d="M 306.5 181 L 301.5 187 L 306.5 181 Z " /><path fill="rgb(170,201,240)" stroke="rgb(170,201,240)" stroke-width="1" opacity="0.8901960784313725" d="M 219.5 182 L 220 184.5 L 219 184.5 L 219.5 182 Z " /><path fill="rgb(170,201,240)" stroke="rgb(170,201,240)" stroke-width="1" opacity="0.8901960784313725" d="M 218.5 190 L 219 193.5 L 218 193.5 L 218.5 190 Z " /><path fill="rgb(170,201,240)" stroke="rgb(170,201,240)" stroke-width="1" opacity="0.8901960784313725" d="M 294.5 204 L 295 206.5 L 294 206.5 L 294.5 204 Z " /><path fill="rgb(170,201,240)" stroke="rgb(170,201,240)" stroke-width="1" opacity="0.8901960784313725" d="M 156.5 257 L 218 257.5 L 156.5 258 L 156.5 257 Z " /><path fill="rgb(170,201,240)" stroke="rgb(170,201,240)" stroke-width="1" opacity="0.8901960784313725" d="M 294.5 257 L 362 257.5 L 294.5 258 L 294.5 257 Z " /><path fill="rgb(170,201,240)" stroke="rgb(170,201,240)" stroke-width="1" opacity="0.8901960784313725" d="M 361.5 259 L 362 261.5 L 361 261.5 L 361.5 259 Z " /><path fill="rgb(170,201,240)" stroke="rgb(170,201,240)" stroke-width="1" opacity="0.8901960784313725" d="M 360.5 265 L 361 267.5 L 360 267.5 L 360.5 265 Z " /><path fill="rgb(170,201,240)" stroke="rgb(170,201,240)" stroke-width="1" opacity="0.8901960784313725" d="M 359.5 272 L 360 274.5 L 359 274.5 L 359.5 272 Z " /><path fill="rgb(170,201,240)" stroke="rgb(170,201,240)" stroke-width="1" opacity="0.8901960784313725" d="M 358.5 278 L 359 280.5 L 358 280.5 L 358.5 278 Z " /><path fill="rgb(170,201,240)" stroke="rgb(170,201,240)" stroke-width="1" opacity="0.8901960784313725" d="M 357.5 285 L 358 287.5 L 357 287.5 L 357.5 285 Z " /><path fill="rgb(170,201,240)" stroke="rgb(170,201,240)" stroke-width="1" opacity="0.8901960784313725" d="M 356.5 291 L 357 293.5 L 356 293.5 L 356.5 291 Z " /><path fill="rgb(170,201,240)" stroke="rgb(170,201,240)" stroke-width="1" opacity="0.8901960784313725" d="M 355.5 298 L 356 300.5 L 355 300.5 L 355.5 298 Z " /><path fill="rgb(170,201,240)" stroke="rgb(170,201,240)" stroke-width="1" opacity="0.8901960784313725" d="M 354.5 304 L 355 306.5 L 354 306.5 L 354.5 304 Z " /><path fill="rgb(170,201,240)" stroke="rgb(170,201,240)" stroke-width="1" opacity="0.8901960784313725" d="M 353.5 311 L 354 313.5 L 353 313.5 L 353.5 311 Z " /><path fill="rgb(170,201,240)" stroke="rgb(170,201,240)" stroke-width="1" opacity="0.8901960784313725" d="M 351.5 324 L 352 326.5 L 351 326.5 L 351.5 324 Z " /><path fill="rgb(170,201,240)" stroke="rgb(170,201,240)" stroke-width="1" opacity="0.8901960784313725" d="M 218.5 499 L 294 499.5 L 218.5 500 L 218.5 499 Z " /><path fill="rgb(241,241,241)" stroke="rgb(241,241,241)" stroke-width="1" opacity="1" d="M 300.5 109 L 334.5 109 L 335.5 110 L 344.5 110 L 345.5 111 L 358.5 112 L 365 114.5 L 365 173 L 327.5 173 L 317.5 175 L 309.5 179 L 301 186.5 L 297 193.5 L 294 204.5 L 294 258 L 362 258.5 L 360 265.5 L 360 271.5 L 358 278.5 L 358 284.5 L 356 291.5 L 356 297.5 L 355 298.5 L 351 328 L 294 328 L 294 499 L 218 499 L 218 328.5 L 217.5 328 L 156 328 L 156 258 L 218 258 L 218 194.5 L 223 166.5 L 229 151.5 Q 236.7 136.8 249.5 127 L 269.5 116 L 286.5 111 L 299.5 110 L 300.5 109 Z " /></svg>