<svg width="512" height="512" version="1.1" xmlns="http://www.w3.org/2000/svg" desc="Created with imagetracer.js version 1.2.6" ><path fill="rgb(249,214,216)" stroke="rgb(249,214,216)" stroke-width="1" opacity="1" d="M 205.5 81 L 310 81.5 L 205.5 82 L 205.5 81 Z " /><path fill="rgb(249,214,216)" stroke="rgb(249,214,216)" stroke-width="1" opacity="1" d="M 180.5 82 L 189 82.5 L 180.5 83 L 180.5 82 Z " /><path fill="rgb(249,214,216)" stroke="rgb(249,214,216)" stroke-width="1" opacity="1" d="M 324.5 82 L 333 82.5 L 324.5 83 L 324.5 82 Z " /><path fill="rgb(249,214,216)" stroke="rgb(249,214,216)" stroke-width="1" opacity="1" d="M 170.5 83 L 174 83.5 L 170.5 84 L 170.5 83 Z " /><path fill="rgb(249,214,216)" stroke="rgb(249,214,216)" stroke-width="1" opacity="1" d="M 339.5 83 L 343 83.5 L 339.5 84 L 339.5 83 Z " /><path fill="rgb(249,214,216)" stroke="rgb(249,214,216)" stroke-width="1" opacity="1" d="M 163.5 84 L 166 84.5 L 163.5 85 L 163.5 84 Z " /><path fill="rgb(249,214,216)" stroke="rgb(249,214,216)" stroke-width="1" opacity="1" d="M 347.5 84 L 350 84.5 L 347.5 85 L 347.5 84 Z " /><path fill="rgb(249,214,216)" stroke="rgb(249,214,216)" stroke-width="1" opacity="1" d="M 352.5 85 L 355 85.5 L 352.5 86 L 352.5 85 Z " /><path fill="rgb(249,214,216)" stroke="rgb(249,214,216)" stroke-width="1" opacity="1" d="M 381.5 95 L 382.5 97 L 381.5 95 Z " /><path fill="rgb(249,214,216)" stroke="rgb(249,214,216)" stroke-width="1" opacity="1" d="M 125.5 98 L 124.5 100 L 125.5 98 Z " /><path fill="rgb(249,214,216)" stroke="rgb(249,214,216)" stroke-width="1" opacity="1" d="M 386.5 98 L 387.5 100 L 386.5 98 Z " /><path fill="rgb(249,214,216)" stroke="rgb(249,214,216)" stroke-width="1" opacity="1" d="M 389.5 100 L 390.5 102 L 389.5 100 Z " /><path fill="rgb(249,214,216)" stroke="rgb(249,214,216)" stroke-width="1" opacity="1" d="M 393.5 103 L 396.5 107 L 393.5 103 Z " /><path fill="rgb(249,214,216)" stroke="rgb(249,214,216)" stroke-width="1" opacity="1" d="M 117.5 104 L 115.5 107 L 117.5 104 Z " /><path fill="rgb(249,214,216)" stroke="rgb(249,214,216)" stroke-width="1" opacity="1" d="M 213.5 112 L 299 112.5 L 213.5 113 L 213.5 112 Z " /><path fill="rgb(249,214,216)" stroke="rgb(249,214,216)" stroke-width="1" opacity="1" d="M 183.5 113 L 193 113.5 L 183.5 114 L 183.5 113 Z " /><path fill="rgb(249,214,216)" stroke="rgb(249,214,216)" stroke-width="1" opacity="1" d="M 318.5 113 L 329 113.5 L 318.5 114 L 318.5 113 Z " /><path fill="rgb(249,214,216)" stroke="rgb(249,214,216)" stroke-width="1" opacity="1" d="M 173.5 114 L 176 114.5 L 173.5 115 L 173.5 114 Z " /><path fill="rgb(249,214,216)" stroke="rgb(249,214,216)" stroke-width="1" opacity="1" d="M 335.5 114 L 339 114.5 L 335.5 115 L 335.5 114 Z " /><path fill="rgb(249,214,216)" stroke="rgb(249,214,216)" stroke-width="1" opacity="1" d="M 106.5 115 L 104.5 118 L 106.5 115 Z " /><path fill="rgb(249,214,216)" stroke="rgb(249,214,216)" stroke-width="1" opacity="1" d="M 405.5 115 L 408.5 119 L 405.5 115 Z " /><path fill="rgb(249,214,216)" stroke="rgb(249,214,216)" stroke-width="1" opacity="1" d="M 102.5 120 L 101.5 122 L 102.5 120 Z " /><path fill="rgb(249,214,216)" stroke="rgb(249,214,216)" stroke-width="1" opacity="1" d="M 410.5 121 L 411.5 123 L 410.5 121 Z " /><path fill="rgb(249,214,216)" stroke="rgb(249,214,216)" stroke-width="1" opacity="1" d="M 412.5 124 L 413.5 126 L 412.5 124 Z " /><path fill="rgb(249,214,216)" stroke="rgb(249,214,216)" stroke-width="1" opacity="1" d="M 138.5 127 L 137.5 129 L 138.5 127 Z " /><path fill="rgb(249,214,216)" stroke="rgb(249,214,216)" stroke-width="1" opacity="1" d="M 373.5 127 L 375.5 130 L 373.5 127 Z " /><path fill="rgb(249,214,216)" stroke="rgb(249,214,216)" stroke-width="1" opacity="1" d="M 382.5 136 L 384.5 139 L 382.5 136 Z " /><path fill="rgb(249,214,216)" stroke="rgb(249,214,216)" stroke-width="1" opacity="1" d="M 128.5 137 L 127.5 139 L 128.5 137 Z " /><path fill="rgb(249,214,216)" stroke="rgb(249,214,216)" stroke-width="1" opacity="1" d="M 387.5 143 L 388.5 145 L 387.5 143 Z " /><path fill="rgb(249,214,216)" stroke="rgb(249,214,216)" stroke-width="1" opacity="1" d="M 337.5 145 L 336.5 147 L 337.5 145 Z " /><path fill="rgb(249,214,216)" stroke="rgb(249,214,216)" stroke-width="1" opacity="1" d="M 362.5 146 L 365.5 150 L 362.5 146 Z " /><path fill="rgb(249,214,216)" stroke="rgb(249,214,216)" stroke-width="1" opacity="1" d="M 332.5 150 L 331.5 152 L 332.5 150 Z " /><path fill="rgb(249,214,216)" stroke="rgb(249,214,216)" stroke-width="1" opacity="1" d="M 426.5 157 L 427 159.5 L 426 159.5 L 426.5 157 Z " /><path fill="rgb(249,214,216)" stroke="rgb(249,214,216)" stroke-width="1" opacity="1" d="M 328.5 159 L 329 165.5 L 328 165.5 L 328.5 159 Z " /><path fill="rgb(249,214,216)" stroke="rgb(249,214,216)" stroke-width="1" opacity="1" d="M 427.5 162 L 428 164.5 L 427 164.5 L 427.5 162 Z " /><path fill="rgb(249,214,216)" stroke="rgb(249,214,216)" stroke-width="1" opacity="1" d="M 249.5 166 L 263 166.5 L 249.5 167 L 249.5 166 Z " /><path fill="rgb(249,214,216)" stroke="rgb(249,214,216)" stroke-width="1" opacity="1" d="M 241.5 167 L 244 167.5 L 241.5 168 L 241.5 167 Z " /><path fill="rgb(249,214,216)" stroke="rgb(249,214,216)" stroke-width="1" opacity="1" d="M 268.5 167 L 271 167.5 L 268.5 168 L 268.5 167 Z " /><path fill="rgb(249,214,216)" stroke="rgb(249,214,216)" stroke-width="1" opacity="1" d="M 428.5 169 L 429 172.5 L 428 172.5 L 428.5 169 Z " /><path fill="rgb(249,214,216)" stroke="rgb(249,214,216)" stroke-width="1" opacity="1" d="M 83.5 170 L 84 172.5 L 83 172.5 L 83.5 170 Z " /><path fill="rgb(249,214,216)" stroke="rgb(249,214,216)" stroke-width="1" opacity="1" d="M 397.5 173 L 398 176.5 L 397 176.5 L 397.5 173 Z " /><path fill="rgb(249,214,216)" stroke="rgb(249,214,216)" stroke-width="1" opacity="1" d="M 366.5 174 L 365.5 176 L 366.5 174 Z " /><path fill="rgb(249,214,216)" stroke="rgb(249,214,216)" stroke-width="1" opacity="1" d="M 333.5 176 L 335.5 179 L 333.5 176 Z " /><path fill="rgb(249,214,216)" stroke="rgb(249,214,216)" stroke-width="1" opacity="1" d="M 212.5 177 L 211.5 179 L 212.5 177 Z " /><path fill="rgb(249,214,216)" stroke="rgb(249,214,216)" stroke-width="1" opacity="1" d="M 299.5 177 L 300.5 179 L 299.5 177 Z " /><path fill="rgb(249,214,216)" stroke="rgb(249,214,216)" stroke-width="1" opacity="1" d="M 362.5 178 L 360.5 181 L 362.5 178 Z " /><path fill="rgb(249,214,216)" stroke="rgb(249,214,216)" stroke-width="1" opacity="1" d="M 429.5 179 L 430 187.5 L 429 187.5 L 429.5 179 Z " /><path fill="rgb(249,214,216)" stroke="rgb(249,214,216)" stroke-width="1" opacity="1" d="M 304.5 180 L 305.5 182 L 304.5 180 Z " /><path fill="rgb(249,214,216)" stroke="rgb(249,214,216)" stroke-width="1" opacity="1" d="M 82.5 181 L 83 187.5 L 82 187.5 L 82.5 181 Z " /><path fill="rgb(249,214,216)" stroke="rgb(249,214,216)" stroke-width="1" opacity="1" d="M 307.5 182 L 308.5 184 L 307.5 182 Z " /><path fill="rgb(249,214,216)" stroke="rgb(249,214,216)" stroke-width="1" opacity="1" d="M 113.5 183 L 114 190.5 L 113 190.5 L 113.5 183 Z " /><path fill="rgb(249,214,216)" stroke="rgb(249,214,216)" stroke-width="1" opacity="1" d="M 346.5 183 L 353 183.5 L 346.5 184 L 346.5 183 Z " /><path fill="rgb(249,214,216)" stroke="rgb(249,214,216)" stroke-width="1" opacity="1" d="M 398.5 183 L 399 193.5 L 398 193.5 L 398.5 183 Z " /><path fill="rgb(249,214,216)" stroke="rgb(249,214,216)" stroke-width="1" opacity="1" d="M 311.5 185 L 313.5 188 L 311.5 185 Z " /><path fill="rgb(249,214,216)" stroke="rgb(249,214,216)" stroke-width="1" opacity="1" d="M 199.5 186 L 197.5 189 L 199.5 186 Z " /><path fill="rgb(249,214,216)" stroke="rgb(249,214,216)" stroke-width="1" opacity="1" d="M 252.5 197 L 260 197.5 L 252.5 198 L 252.5 197 Z " /><path fill="rgb(249,214,216)" stroke="rgb(249,214,216)" stroke-width="1" opacity="1" d="M 187.5 198 L 186.5 200 L 187.5 198 Z " /><path fill="rgb(249,214,216)" stroke="rgb(249,214,216)" stroke-width="1" opacity="1" d="M 244.5 198 L 247 198.5 L 244.5 199 L 244.5 198 Z " /><path fill="rgb(249,214,216)" stroke="rgb(249,214,216)" stroke-width="1" opacity="1" d="M 265.5 198 L 268 198.5 L 265.5 199 L 265.5 198 Z " /><path fill="rgb(249,214,216)" stroke="rgb(249,214,216)" stroke-width="1" opacity="1" d="M 324.5 198 L 326.5 201 L 324.5 198 Z " /><path fill="rgb(249,214,216)" stroke="rgb(249,214,216)" stroke-width="1" opacity="1" d="M 430.5 202 L 431 307.5 L 430 307.5 L 430.5 202 Z " /><path fill="rgb(249,214,216)" stroke="rgb(249,214,216)" stroke-width="1" opacity="1" d="M 328.5 203 L 329.5 205 L 328.5 203 Z " /><path fill="rgb(249,214,216)" stroke="rgb(249,214,216)" stroke-width="1" opacity="1" d="M 81.5 205 L 82 311.5 L 81 311.5 L 81.5 205 Z " /><path fill="rgb(249,214,216)" stroke="rgb(249,214,216)" stroke-width="1" opacity="1" d="M 330.5 206 L 331.5 208 L 330.5 206 Z " /><path fill="rgb(249,214,216)" stroke="rgb(249,214,216)" stroke-width="1" opacity="1" d="M 220.5 209 L 219.5 211 L 220.5 209 Z " /><path fill="rgb(249,214,216)" stroke="rgb(249,214,216)" stroke-width="1" opacity="1" d="M 291.5 209 L 292.5 211 L 291.5 209 Z " /><path fill="rgb(249,214,216)" stroke="rgb(249,214,216)" stroke-width="1" opacity="1" d="M 333.5 211 L 334.5 213 L 333.5 211 Z " /><path fill="rgb(249,214,216)" stroke="rgb(249,214,216)" stroke-width="1" opacity="1" d="M 112.5 213 L 113 293.5 L 112 293.5 L 112.5 213 Z " /><path fill="rgb(249,214,216)" stroke="rgb(249,214,216)" stroke-width="1" opacity="1" d="M 399.5 216 L 400 298.5 L 399 298.5 L 399.5 216 Z " /><path fill="rgb(249,214,216)" stroke="rgb(249,214,216)" stroke-width="1" opacity="1" d="M 210.5 219 L 209.5 221 L 210.5 219 Z " /><path fill="rgb(249,214,216)" stroke="rgb(249,214,216)" stroke-width="1" opacity="1" d="M 301.5 219 L 302.5 221 L 301.5 219 Z " /><path fill="rgb(249,214,216)" stroke="rgb(249,214,216)" stroke-width="1" opacity="1" d="M 167.5 241 L 168 243.5 L 167 243.5 L 167.5 241 Z " /><path fill="rgb(249,214,216)" stroke="rgb(249,214,216)" stroke-width="1" opacity="1" d="M 344.5 241 L 345 243.5 L 344 243.5 L 344.5 241 Z " /><path fill="rgb(249,214,216)" stroke="rgb(249,214,216)" stroke-width="1" opacity="1" d="M 198.5 244 L 199 246.5 L 198 246.5 L 198.5 244 Z " /><path fill="rgb(249,214,216)" stroke="rgb(249,214,216)" stroke-width="1" opacity="1" d="M 313.5 244 L 314 246.5 L 313 246.5 L 313.5 244 Z " /><path fill="rgb(249,214,216)" stroke="rgb(249,214,216)" stroke-width="1" opacity="1" d="M 345.5 249 L 346 262.5 L 345 262.5 L 345.5 249 Z " /><path fill="rgb(249,214,216)" stroke="rgb(249,214,216)" stroke-width="1" opacity="1" d="M 166.5 250 L 167 261.5 L 166 261.5 L 166.5 250 Z " /><path fill="rgb(249,214,216)" stroke="rgb(249,214,216)" stroke-width="1" opacity="1" d="M 197.5 252 L 198 259.5 L 197 259.5 L 197.5 252 Z " /><path fill="rgb(249,214,216)" stroke="rgb(249,214,216)" stroke-width="1" opacity="1" d="M 314.5 252 L 315 259.5 L 314 259.5 L 314.5 252 Z " /><path fill="rgb(249,214,216)" stroke="rgb(249,214,216)" stroke-width="1" opacity="1" d="M 198.5 265 L 199 267.5 L 198 267.5 L 198.5 265 Z " /><path fill="rgb(249,214,216)" stroke="rgb(249,214,216)" stroke-width="1" opacity="1" d="M 313.5 265 L 314 267.5 L 313 267.5 L 313.5 265 Z " /><path fill="rgb(249,214,216)" stroke="rgb(249,214,216)" stroke-width="1" opacity="1" d="M 167.5 268 L 168 270.5 L 167 270.5 L 167.5 268 Z " /><path fill="rgb(249,214,216)" stroke="rgb(249,214,216)" stroke-width="1" opacity="1" d="M 344.5 268 L 345 270.5 L 344 270.5 L 344.5 268 Z " /><path fill="rgb(249,214,216)" stroke="rgb(249,214,216)" stroke-width="1" opacity="1" d="M 209.5 291 L 210.5 293 L 209.5 291 Z " /><path fill="rgb(249,214,216)" stroke="rgb(249,214,216)" stroke-width="1" opacity="1" d="M 302.5 291 L 301.5 293 L 302.5 291 Z " /><path fill="rgb(249,214,216)" stroke="rgb(249,214,216)" stroke-width="1" opacity="1" d="M 219.5 301 L 220.5 303 L 219.5 301 Z " /><path fill="rgb(249,214,216)" stroke="rgb(249,214,216)" stroke-width="1" opacity="1" d="M 292.5 301 L 291.5 303 L 292.5 301 Z " /><path fill="rgb(249,214,216)" stroke="rgb(249,214,216)" stroke-width="1" opacity="1" d="M 180.5 304 L 181.5 306 L 180.5 304 Z " /><path fill="rgb(249,214,216)" stroke="rgb(249,214,216)" stroke-width="1" opacity="1" d="M 182.5 307 L 183.5 309 L 182.5 307 Z " /><path fill="rgb(249,214,216)" stroke="rgb(249,214,216)" stroke-width="1" opacity="1" d="M 185.5 311 L 187.5 314 L 185.5 311 Z " /><path fill="rgb(249,214,216)" stroke="rgb(249,214,216)" stroke-width="1" opacity="1" d="M 325.5 312 L 323.5 315 L 325.5 312 Z " /><path fill="rgb(249,214,216)" stroke="rgb(249,214,216)" stroke-width="1" opacity="1" d="M 244.5 313 L 247 313.5 L 244.5 314 L 244.5 313 Z " /><path fill="rgb(249,214,216)" stroke="rgb(249,214,216)" stroke-width="1" opacity="1" d="M 265.5 313 L 268 313.5 L 265.5 314 L 265.5 313 Z " /><path fill="rgb(249,214,216)" stroke="rgb(249,214,216)" stroke-width="1" opacity="1" d="M 252.5 314 L 260 314.5 L 252.5 315 L 252.5 314 Z " /><path fill="rgb(249,214,216)" stroke="rgb(249,214,216)" stroke-width="1" opacity="1" d="M 113.5 318 L 114 327.5 L 113 327.5 L 113.5 318 Z " /><path fill="rgb(249,214,216)" stroke="rgb(249,214,216)" stroke-width="1" opacity="1" d="M 398.5 319 L 399 328.5 L 398 328.5 L 398.5 319 Z " /><path fill="rgb(249,214,216)" stroke="rgb(249,214,216)" stroke-width="1" opacity="1" d="M 314.5 323 L 312.5 326 L 314.5 323 Z " /><path fill="rgb(249,214,216)" stroke="rgb(249,214,216)" stroke-width="1" opacity="1" d="M 198.5 324 L 199.5 326 L 198.5 324 Z " /><path fill="rgb(249,214,216)" stroke="rgb(249,214,216)" stroke-width="1" opacity="1" d="M 429.5 324 L 430 331.5 L 429 331.5 L 429.5 324 Z " /><path fill="rgb(249,214,216)" stroke="rgb(249,214,216)" stroke-width="1" opacity="1" d="M 82.5 325 L 83 333.5 L 82 333.5 L 82.5 325 Z " /><path fill="rgb(249,214,216)" stroke="rgb(249,214,216)" stroke-width="1" opacity="1" d="M 211.5 333 L 212.5 335 L 211.5 333 Z " /><path fill="rgb(249,214,216)" stroke="rgb(249,214,216)" stroke-width="1" opacity="1" d="M 114.5 335 L 115 338.5 L 114 338.5 L 114.5 335 Z " /><path fill="rgb(249,214,216)" stroke="rgb(249,214,216)" stroke-width="1" opacity="1" d="M 397.5 336 L 398 338.5 L 397 338.5 L 397.5 336 Z " /><path fill="rgb(249,214,216)" stroke="rgb(249,214,216)" stroke-width="1" opacity="1" d="M 83.5 339 L 84 343.5 L 83 343.5 L 83.5 339 Z " /><path fill="rgb(249,214,216)" stroke="rgb(249,214,216)" stroke-width="1" opacity="1" d="M 428.5 339 L 429 342.5 L 428 342.5 L 428.5 339 Z " /><path fill="rgb(249,214,216)" stroke="rgb(249,214,216)" stroke-width="1" opacity="1" d="M 115.5 342 L 116 344.5 L 115 344.5 L 115.5 342 Z " /><path fill="rgb(249,214,216)" stroke="rgb(249,214,216)" stroke-width="1" opacity="1" d="M 396.5 343 L 397 345.5 L 396 345.5 L 396.5 343 Z " /><path fill="rgb(249,214,216)" stroke="rgb(249,214,216)" stroke-width="1" opacity="1" d="M 241.5 344 L 244 344.5 L 241.5 345 L 241.5 344 Z " /><path fill="rgb(249,214,216)" stroke="rgb(249,214,216)" stroke-width="1" opacity="1" d="M 268.5 344 L 271 344.5 L 268.5 345 L 268.5 344 Z " /><path fill="rgb(249,214,216)" stroke="rgb(249,214,216)" stroke-width="1" opacity="1" d="M 250.5 345 L 262 345.5 L 250.5 346 L 250.5 345 Z " /><path fill="rgb(249,214,216)" stroke="rgb(249,214,216)" stroke-width="1" opacity="1" d="M 84.5 347 L 85 349.5 L 84 349.5 L 84.5 347 Z " /><path fill="rgb(249,214,216)" stroke="rgb(249,214,216)" stroke-width="1" opacity="1" d="M 123.5 367 L 124.5 369 L 123.5 367 Z " /><path fill="rgb(249,214,216)" stroke="rgb(249,214,216)" stroke-width="1" opacity="1" d="M 125.5 370 L 126.5 372 L 125.5 370 Z " /><path fill="rgb(249,214,216)" stroke="rgb(249,214,216)" stroke-width="1" opacity="1" d="M 127.5 373 L 130.5 377 L 127.5 373 Z " /><path fill="rgb(249,214,216)" stroke="rgb(249,214,216)" stroke-width="1" opacity="1" d="M 384.5 373 L 383.5 375 L 384.5 373 Z " /><path fill="rgb(249,214,216)" stroke="rgb(249,214,216)" stroke-width="1" opacity="1" d="M 135.5 381 L 138.5 385 L 135.5 381 Z " /><path fill="rgb(249,214,216)" stroke="rgb(249,214,216)" stroke-width="1" opacity="1" d="M 96.5 383 L 97.5 385 L 96.5 383 Z " /><path fill="rgb(249,214,216)" stroke="rgb(249,214,216)" stroke-width="1" opacity="1" d="M 374.5 383 L 373.5 385 L 374.5 383 Z " /><path fill="rgb(249,214,216)" stroke="rgb(249,214,216)" stroke-width="1" opacity="1" d="M 140.5 385 L 141.5 387 L 140.5 385 Z " /><path fill="rgb(249,214,216)" stroke="rgb(249,214,216)" stroke-width="1" opacity="1" d="M 98.5 386 L 99.5 388 L 98.5 386 Z " /><path fill="rgb(249,214,216)" stroke="rgb(249,214,216)" stroke-width="1" opacity="1" d="M 143.5 387 L 144.5 389 L 143.5 387 Z " /><path fill="rgb(249,214,216)" stroke="rgb(249,214,216)" stroke-width="1" opacity="1" d="M 100.5 389 L 101.5 391 L 100.5 389 Z " /><path fill="rgb(249,214,216)" stroke="rgb(249,214,216)" stroke-width="1" opacity="1" d="M 410.5 390 L 409.5 392 L 410.5 390 Z " /><path fill="rgb(249,214,216)" stroke="rgb(249,214,216)" stroke-width="1" opacity="1" d="M 103.5 393 L 105.5 396 L 103.5 393 Z " /><path fill="rgb(249,214,216)" stroke="rgb(249,214,216)" stroke-width="1" opacity="1" d="M 407.5 394 L 405.5 397 L 407.5 394 Z " /><path fill="rgb(249,214,216)" stroke="rgb(249,214,216)" stroke-width="1" opacity="1" d="M 173.5 397 L 177 397.5 L 173.5 398 L 173.5 397 Z " /><path fill="rgb(249,214,216)" stroke="rgb(249,214,216)" stroke-width="1" opacity="1" d="M 336.5 397 L 339 397.5 L 336.5 398 L 336.5 397 Z " /><path fill="rgb(249,214,216)" stroke="rgb(249,214,216)" stroke-width="1" opacity="1" d="M 184.5 398 L 194 398.5 L 184.5 399 L 184.5 398 Z " /><path fill="rgb(249,214,216)" stroke="rgb(249,214,216)" stroke-width="1" opacity="1" d="M 321.5 398 L 329 398.5 L 321.5 399 L 321.5 398 Z " /><path fill="rgb(249,214,216)" stroke="rgb(249,214,216)" stroke-width="1" opacity="1" d="M 214.5 399 L 296 399.5 L 214.5 400 L 214.5 399 Z " /><path fill="rgb(249,214,216)" stroke="rgb(249,214,216)" stroke-width="1" opacity="1" d="M 396.5 405 L 394.5 408 L 396.5 405 Z " /><path fill="rgb(249,214,216)" stroke="rgb(249,214,216)" stroke-width="1" opacity="1" d="M 116.5 406 L 118.5 409 L 116.5 406 Z " /><path fill="rgb(249,214,216)" stroke="rgb(249,214,216)" stroke-width="1" opacity="1" d="M 121.5 410 L 122.5 412 L 121.5 410 Z " /><path fill="rgb(249,214,216)" stroke="rgb(249,214,216)" stroke-width="1" opacity="1" d="M 124.5 412 L 125.5 414 L 124.5 412 Z " /><path fill="rgb(249,214,216)" stroke="rgb(249,214,216)" stroke-width="1" opacity="1" d="M 127.5 414 L 128.5 416 L 127.5 414 Z " /><path fill="rgb(249,214,216)" stroke="rgb(249,214,216)" stroke-width="1" opacity="1" d="M 157.5 426 L 160 426.5 L 157.5 427 L 157.5 426 Z " /><path fill="rgb(249,214,216)" stroke="rgb(249,214,216)" stroke-width="1" opacity="1" d="M 162.5 427 L 165 427.5 L 162.5 428 L 162.5 427 Z " /><path fill="rgb(249,214,216)" stroke="rgb(249,214,216)" stroke-width="1" opacity="1" d="M 168.5 428 L 173 428.5 L 168.5 429 L 168.5 428 Z " /><path fill="rgb(249,214,216)" stroke="rgb(249,214,216)" stroke-width="1" opacity="1" d="M 339.5 428 L 342 428.5 L 339.5 429 L 339.5 428 Z " /><path fill="rgb(249,214,216)" stroke="rgb(249,214,216)" stroke-width="1" opacity="1" d="M 178.5 429 L 187 429.5 L 178.5 430 L 178.5 429 Z " /><path fill="rgb(249,214,216)" stroke="rgb(249,214,216)" stroke-width="1" opacity="1" d="M 324.5 429 L 331 429.5 L 324.5 430 L 324.5 429 Z " /><path fill="rgb(249,214,216)" stroke="rgb(249,214,216)" stroke-width="1" opacity="1" d="M 201.5 430 L 306 430.5 L 201.5 431 L 201.5 430 Z " /><path fill="rgb(197,0,142)" stroke="rgb(197,0,142)" stroke-width="1" opacity="0.9921568627450981" d="M 233.5 0 L 278.5 0 L 279.5 1 L 301.5 3 L 330.5 10 L 355.5 19 Q 411.6 43.4 449 86.5 Q 484.3 125.2 502 181.5 L 508 205.5 L 510 223.5 L 511 224.5 L 511 232.5 L 512 233.5 L 512 278.5 L 511 279.5 L 509 301.5 L 504 323.5 Q 498 346 488.5 365 L 431 306.5 L 431 202.5 L 430 201.5 L 430 179.5 L 429 178.5 L 428 162.5 Q 420.4 123.1 393.5 103 Q 383.6 94.9 370.5 90 L 358.5 86 L 342.5 83 L 310.5 82 L 309.5 81 L 205.5 81 L 204.5 82 L 194.5 82 L 194.5 81 L 205 80.5 L 149 24.5 L 149 22 L 188.5 8 L 216.5 2 L 232.5 1 L 233.5 0 Z " /><path fill="rgb(197,0,142)" stroke="rgb(197,0,142)" stroke-width="1" opacity="0.9921568627450981" d="M 177.5 82 L 180 82.5 L 177.5 83 L 177.5 82 Z " /><path fill="rgb(197,0,142)" stroke="rgb(197,0,142)" stroke-width="1" opacity="0.9921568627450981" d="M 193.5 113 L 198 113.5 L 193.5 114 L 193.5 113 Z " /><path fill="rgb(197,0,142)" stroke="rgb(197,0,142)" stroke-width="1" opacity="0.9921568627450981" d="M 238.5 113 L 317.5 113 L 318.5 114 L 342.5 115 Q 357.3 117.7 368.5 124 L 382 135.5 Q 389.1 143.4 393 154.5 L 398 177.5 L 398 193.5 L 399 194.5 L 399 273.5 L 335.5 211 Q 334.3 213.3 333 210.5 L 333.5 209 Q 331.3 209.8 332 207.5 Q 323.5 194.5 311.5 185 L 303 180 L 302.5 178 Q 301.3 180.3 300 177.5 L 301 176.5 L 238.5 113 Z M 344 142 L 338 145 Q 330 150 328 160 Q 328 171 333 177 Q 338 182 347 184 L 353 184 L 361 181 Q 367 177 370 169 Q 372 155 366 150 Q 362 144 355 142 L 344 142 Z " /><path fill="rgb(197,0,142)" stroke="rgb(197,0,142)" stroke-width="1" opacity="0.9921568627450981" d="M 263.5 166 L 266 166.5 L 263.5 167 L 263.5 166 Z " /><path fill="rgb(197,0,142)" stroke="rgb(197,0,142)" stroke-width="1" opacity="0.9921568627450981" d="M 293.5 211 L 295.5 214 L 293.5 211 Z " /><path fill="rgb(197,0,142)" stroke="rgb(197,0,142)" stroke-width="1" opacity="0.9921568627450981" d="M 298.5 216 L 300.5 219 L 298.5 216 Z " /><path fill="rgb(197,0,142)" stroke="rgb(197,0,142)" stroke-width="1" opacity="0.9921568627450981" d="M 345.5 246 L 346 248.5 L 345 248.5 L 345.5 246 Z " /><path fill="rgb(197,0,142)" stroke="rgb(197,0,142)" stroke-width="1" opacity="0.9921568627450981" d="M 430.5 308 L 431 318.5 L 430 318.5 L 430.5 308 Z " /><path fill="rgb(197,0,142)" stroke="rgb(197,0,142)" stroke-width="1" opacity="0.9921568627450981" d="M 398.5 314 L 399 318.5 L 398 318.5 L 398.5 314 Z " /><path fill="rgb(197,0,142)" stroke="rgb(197,0,142)" stroke-width="1" opacity="0.9921568627450981" d="M 429.5 332 L 430 335.5 L 429 335.5 L 429.5 332 Z " /><path fill="rgb(0,0,0)" stroke="rgb(0,0,0)" stroke-width="1" opacity="0" d="M 0 0 L 233 0.5 L 200.5 5 Q 176.9 10.4 156.5 19 Q 136 27.5 118.5 39 L 86 63 Q 87.1 65.7 84.5 65 Q 51.8 93.8 30 133.5 Q 18 155.5 10 181.5 L 3 210.5 L 0.5 233 L 0 0 Z " /><path fill="rgb(0,0,0)" stroke="rgb(0,0,0)" stroke-width="1" opacity="0" d="M 279.5 0 L 512 0 L 512 232.5 L 511 232.5 L 510 216.5 L 502 181.5 Q 494 155.5 482 133.5 Q 459 92 424.5 62 Q 394.7 35.8 355.5 19 L 323.5 8 L 301.5 3 L 279.5 1 L 279.5 0 Z " /><path fill="rgb(0,0,0)" stroke="rgb(0,0,0)" stroke-width="1" opacity="0" d="M 0.5 279 L 3 301.5 L 10 330.5 Q 18 356.5 30 378.5 Q 52.6 419.4 86.5 449 Q 116.6 475.9 156.5 493 Q 176.9 501.6 200.5 507 L 233 511.5 L 0 512 L 0.5 279 Z " /><path fill="rgb(0,0,0)" stroke="rgb(0,0,0)" stroke-width="1" opacity="0" d="M 511.5 279 L 512 512 L 279 511.5 L 301.5 509 L 323.5 504 Q 345.5 498 364.5 489 Q 413.3 465.8 447 427.5 L 449 424.5 Q 476.3 395.3 493 355.5 Q 501.6 335.1 507 311.5 L 511.5 279 Z " /><path fill="rgb(246,54,12)" stroke="rgb(246,54,12)" stroke-width="1" opacity="0.996078431372549" d="M 73.5 76 L 108.5 112 L 115 106.5 Q 95.2 122.2 87 149.5 L 82 175.5 L 80.5 211 L 22 152.5 L 23 149.5 Q 41.8 106.3 73.5 76 Z " /><path fill="rgb(246,54,12)" stroke="rgb(246,54,12)" stroke-width="1" opacity="0.996078431372549" d="M 135.5 130 L 132 134.5 L 190.5 194 L 192 193.5 Q 178 206 171 225.5 L 166 246.5 L 166 266.5 L 169 281.5 L 177 300.5 Q 185.4 315.6 198.5 326 Q 211.7 337.3 230.5 343 L 245.5 346 L 265.5 346 L 280.5 343 L 291.5 339 Q 307.7 332.2 318.5 320 L 318 321.5 L 376.5 380 L 381.5 376 L 376.5 382 Q 367.5 390 354.5 394 L 341.5 397 L 310.5 398 L 309.5 399 L 307.5 399 L 268.5 399 L 113 243.5 L 113 202.5 L 114 201.5 L 115 170.5 L 117 160.5 L 123 145.5 L 135.5 130 Z " /><path fill="rgb(246,54,12)" stroke="rgb(246,54,12)" stroke-width="1" opacity="0.996078431372549" d="M 196.5 188 L 193.5 192 L 196.5 188 Z " /><path fill="rgb(246,54,12)" stroke="rgb(246,54,12)" stroke-width="1" opacity="0.996078431372549" d="M 222.5 208 L 221.5 210 L 222.5 208 Z " /><path fill="rgb(246,54,12)" stroke="rgb(246,54,12)" stroke-width="1" opacity="0.996078431372549" d="M 217.5 212 L 214 216.5 L 294.5 298 L 299.5 294 L 294.5 300 Q 285.5 308 272.5 312 L 263.5 314 L 249.5 314 L 239.5 312 L 229.5 308 Q 217.3 301.1 209 290.5 L 200 272.5 L 198 262.5 L 198 248.5 Q 202.3 224.8 217.5 212 Z " /><path fill="rgb(246,54,12)" stroke="rgb(246,54,12)" stroke-width="1" opacity="0.996078431372549" d="M 296.5 214 L 297.5 216 L 296.5 214 Z " /><path fill="rgb(246,54,12)" stroke="rgb(246,54,12)" stroke-width="1" opacity="0.996078431372549" d="M 303.5 289 L 302.5 291 L 303.5 289 Z " /><path fill="rgb(246,54,12)" stroke="rgb(246,54,12)" stroke-width="1" opacity="0.996078431372549" d="M 323.5 315 L 320.5 319 L 323.5 315 Z " /><path fill="rgb(246,54,12)" stroke="rgb(246,54,12)" stroke-width="1" opacity="0.996078431372549" d="M 405.5 397 L 400 403.5 L 435 438.5 L 427.5 447 Q 399.2 473.2 361.5 490 L 360 489.5 L 359.5 491 L 301 431.5 L 336.5 430 L 362.5 425 Q 389.8 416.8 405.5 397 Z " /><path fill="rgb(255,254,254)" stroke="rgb(255,254,254)" stroke-width="1" opacity="1" d="M 120.5 102 L 119.5 104 L 120.5 102 Z " /><path fill="rgb(255,254,254)" stroke="rgb(255,254,254)" stroke-width="1" opacity="1" d="M 391.5 102 L 392.5 104 L 391.5 102 Z " /><path fill="rgb(255,254,254)" stroke="rgb(255,254,254)" stroke-width="1" opacity="1" d="M 114.5 107 L 107.5 115 L 114.5 107 Z " /><path fill="rgb(255,254,254)" stroke="rgb(255,254,254)" stroke-width="1" opacity="1" d="M 397.5 107 L 404.5 115 L 397.5 107 Z " /><path fill="rgb(255,254,254)" stroke="rgb(255,254,254)" stroke-width="1" opacity="1" d="M 208.5 112 L 213 112.5 L 208.5 113 L 208.5 112 Z " /><path fill="rgb(255,254,254)" stroke="rgb(255,254,254)" stroke-width="1" opacity="1" d="M 299.5 112 L 304 112.5 L 299.5 113 L 299.5 112 Z " /><path fill="rgb(255,254,254)" stroke="rgb(255,254,254)" stroke-width="1" opacity="1" d="M 408.5 119 L 409.5 121 L 408.5 119 Z " /><path fill="rgb(255,254,254)" stroke="rgb(255,254,254)" stroke-width="1" opacity="1" d="M 135.5 129 L 129.5 136 L 135.5 129 Z " /><path fill="rgb(255,254,254)" stroke="rgb(255,254,254)" stroke-width="1" opacity="1" d="M 376.5 129 L 382.5 136 L 376.5 129 Z " /><path fill="rgb(255,254,254)" stroke="rgb(255,254,254)" stroke-width="1" opacity="1" d="M 335.5 147 L 333.5 150 L 335.5 147 Z " /><path fill="rgb(255,254,254)" stroke="rgb(255,254,254)" stroke-width="1" opacity="1" d="M 364.5 176 L 363.5 178 L 364.5 176 Z " /><path fill="rgb(255,254,254)" stroke="rgb(255,254,254)" stroke-width="1" opacity="1" d="M 202.5 184 L 201.5 186 L 202.5 184 Z " /><path fill="rgb(255,254,254)" stroke="rgb(255,254,254)" stroke-width="1" opacity="1" d="M 309.5 184 L 310.5 186 L 309.5 184 Z " /><path fill="rgb(255,254,254)" stroke="rgb(255,254,254)" stroke-width="1" opacity="1" d="M 82.5 188 L 83 190.5 L 82 190.5 L 82.5 188 Z " /><path fill="rgb(255,254,254)" stroke="rgb(255,254,254)" stroke-width="1" opacity="1" d="M 314.5 188 L 323.5 198 L 314.5 188 Z " /><path fill="rgb(255,254,254)" stroke="rgb(255,254,254)" stroke-width="1" opacity="1" d="M 429.5 188 L 430 190.5 L 429 190.5 L 429.5 188 Z " /><path fill="rgb(255,254,254)" stroke="rgb(255,254,254)" stroke-width="1" opacity="1" d="M 196.5 189 L 188.5 198 L 196.5 189 Z " /><path fill="rgb(255,254,254)" stroke="rgb(255,254,254)" stroke-width="1" opacity="1" d="M 185.5 201 L 184.5 203 L 185.5 201 Z " /><path fill="rgb(255,254,254)" stroke="rgb(255,254,254)" stroke-width="1" opacity="1" d="M 326.5 201 L 327.5 203 L 326.5 201 Z " /><path fill="rgb(255,254,254)" stroke="rgb(255,254,254)" stroke-width="1" opacity="1" d="M 112.5 207 L 113 212.5 L 112 212.5 L 112.5 207 Z " /><path fill="rgb(255,254,254)" stroke="rgb(255,254,254)" stroke-width="1" opacity="1" d="M 399.5 208 L 400 215.5 L 399 215.5 L 399.5 208 Z " /><path fill="rgb(255,254,254)" stroke="rgb(255,254,254)" stroke-width="1" opacity="1" d="M 217.5 211 L 211.5 218 L 217.5 211 Z " /><path fill="rgb(255,254,254)" stroke="rgb(255,254,254)" stroke-width="1" opacity="1" d="M 294.5 211 L 300.5 218 L 294.5 211 Z " /><path fill="rgb(255,254,254)" stroke="rgb(255,254,254)" stroke-width="1" opacity="1" d="M 112.5 294 L 113 303.5 L 112 303.5 L 112.5 294 Z " /><path fill="rgb(255,254,254)" stroke="rgb(255,254,254)" stroke-width="1" opacity="1" d="M 211.5 294 L 217.5 301 L 211.5 294 Z " /><path fill="rgb(255,254,254)" stroke="rgb(255,254,254)" stroke-width="1" opacity="1" d="M 300.5 294 L 294.5 301 L 300.5 294 Z " /><path fill="rgb(255,254,254)" stroke="rgb(255,254,254)" stroke-width="1" opacity="1" d="M 399.5 299 L 400 304.5 L 399 304.5 L 399.5 299 Z " /><path fill="rgb(255,254,254)" stroke="rgb(255,254,254)" stroke-width="1" opacity="1" d="M 184.5 309 L 185.5 311 L 184.5 309 Z " /><path fill="rgb(255,254,254)" stroke="rgb(255,254,254)" stroke-width="1" opacity="1" d="M 327.5 309 L 326.5 311 L 327.5 309 Z " /><path fill="rgb(255,254,254)" stroke="rgb(255,254,254)" stroke-width="1" opacity="1" d="M 188.5 314 L 197.5 324 L 188.5 314 Z " /><path fill="rgb(255,254,254)" stroke="rgb(255,254,254)" stroke-width="1" opacity="1" d="M 322.5 315 L 315.5 323 L 322.5 315 Z " /><path fill="rgb(255,254,254)" stroke="rgb(255,254,254)" stroke-width="1" opacity="1" d="M 429.5 321 L 430 323.5 L 429 323.5 L 429.5 321 Z " /><path fill="rgb(255,254,254)" stroke="rgb(255,254,254)" stroke-width="1" opacity="1" d="M 82.5 322 L 83 324.5 L 82 324.5 L 82.5 322 Z " /><path fill="rgb(255,254,254)" stroke="rgb(255,254,254)" stroke-width="1" opacity="1" d="M 201.5 326 L 202.5 328 L 201.5 326 Z " /><path fill="rgb(255,254,254)" stroke="rgb(255,254,254)" stroke-width="1" opacity="1" d="M 310.5 326 L 309.5 328 L 310.5 326 Z " /><path fill="rgb(255,254,254)" stroke="rgb(255,254,254)" stroke-width="1" opacity="1" d="M 129.5 376 L 135.5 383 L 129.5 376 Z " /><path fill="rgb(255,254,254)" stroke="rgb(255,254,254)" stroke-width="1" opacity="1" d="M 381.5 377 L 377.5 382 L 381.5 377 Z " /><path fill="rgb(255,254,254)" stroke="rgb(255,254,254)" stroke-width="1" opacity="1" d="M 102.5 391 L 103.5 393 L 102.5 391 Z " /><path fill="rgb(255,254,254)" stroke="rgb(255,254,254)" stroke-width="1" opacity="1" d="M 106.5 396 L 115.5 406 L 106.5 396 Z " /><path fill="rgb(255,254,254)" stroke="rgb(255,254,254)" stroke-width="1" opacity="1" d="M 404.5 397 L 397.5 405 L 404.5 397 Z " /><path fill="rgb(255,254,254)" stroke="rgb(255,254,254)" stroke-width="1" opacity="1" d="M 208.5 399 L 214 399.5 L 208.5 400 L 208.5 399 Z " /><path fill="rgb(255,254,254)" stroke="rgb(255,254,254)" stroke-width="1" opacity="1" d="M 296.5 399 L 303 399.5 L 296.5 400 L 296.5 399 Z " /><path fill="rgb(255,254,254)" stroke="rgb(255,254,254)" stroke-width="1" opacity="1" d="M 119.5 408 L 120.5 410 L 119.5 408 Z " /><path fill="rgb(255,254,254)" stroke="rgb(255,254,254)" stroke-width="1" opacity="1" d="M 392.5 408 L 391.5 410 L 392.5 408 Z " /><path fill="rgb(255,254,254)" stroke="rgb(255,254,254)" stroke-width="1" opacity="1" d="M 187.5 429 L 190 429.5 L 187.5 430 L 187.5 429 Z " /><path fill="rgb(255,255,255)" stroke="rgb(255,255,255)" stroke-width="1" opacity="1" d="M 191.5 82 L 321.5 82 L 322.5 83 L 345.5 84 L 371.5 91 L 383.5 97 Q 397.8 105.7 408 118.5 L 421 140.5 L 426 156.5 L 428 166.5 L 428 173.5 L 429 174.5 L 429 190.5 L 430 191.5 L 430 320.5 L 429 321.5 L 428 345.5 L 425 359.5 L 420 373.5 Q 410.6 394.6 393.5 408 L 371.5 421 L 351.5 427 L 338.5 428 L 337.5 429 L 322.5 429 L 321.5 430 L 190.5 430 L 189.5 429 L 166.5 428 L 152.5 425 L 138.5 420 Q 117.4 410.6 104 393.5 L 91 371.5 L 86 355.5 L 84 345.5 L 84 338.5 L 83 337.5 L 83 322.5 L 82 321.5 L 82 191.5 L 83 190.5 L 84 166.5 L 87 152.5 L 92 138.5 Q 101.4 117.4 118.5 104 Q 132.5 92.5 152.5 87 L 167.5 84 L 190.5 83 L 191.5 82 Z M 209 112 L 208 113 L 183 113 L 182 114 L 173 114 L 162 116 Q 146 120 136 129 Q 121 141 116 162 L 114 173 L 114 181 L 113 182 L 113 207 L 112 208 L 112 304 L 113 305 L 114 340 L 119 360 L 129 377 Q 141 391 162 396 L 173 398 L 182 398 L 183 399 L 208 399 L 209 400 L 303 400 L 304 399 L 340 398 L 360 393 L 378 382 Q 391 370 396 351 L 398 340 L 398 331 L 399 330 L 399 306 L 400 305 L 400 209 L 399 208 L 398 173 L 393 153 L 383 136 Q 374 125 360 119 L 340 114 L 305 113 L 304 112 L 209 112 Z " /><path fill="rgb(255,255,255)" stroke="rgb(255,255,255)" stroke-width="1" opacity="1" d="M 346.5 142 Q 360.7 141.8 366 150.5 Q 370.2 155.8 370 165.5 Q 368 175.5 360.5 180 Q 355.4 184.3 344.5 183 Q 337.1 180.9 333 175.5 Q 327.5 170.5 329 158.5 Q 331.4 149.4 338.5 145 L 346.5 142 Z " /><path fill="rgb(255,255,255)" stroke="rgb(255,255,255)" stroke-width="1" opacity="1" d="M 245.5 167 L 266.5 167 L 289.5 173 Q 311.9 182.6 326 200.5 Q 337.5 214.5 343 234.5 L 345 245.5 L 345 266.5 Q 338.1 306.1 311.5 326 Q 297.5 337.5 277.5 343 L 266.5 345 L 245.5 345 Q 205.9 338.1 186 311.5 Q 174.5 297.5 169 277.5 L 167 266.5 L 167 245.5 Q 173.9 205.9 200.5 186 L 222.5 173 L 245.5 167 Z M 251 197 L 232 202 L 218 211 L 204 228 L 199 241 L 197 251 L 197 262 L 199 272 Q 203 285 211 295 L 228 308 L 241 313 L 252 315 L 261 315 L 272 313 Q 285 309 295 301 L 308 285 L 313 272 L 315 262 L 315 251 L 313 241 Q 309 227 301 218 Q 293 208 281 202 L 262 197 L 251 197 Z " /><path fill="rgb(228,0,47)" stroke="rgb(228,0,47)" stroke-width="1" opacity="0.996078431372549" d="M 147.5 23 Q 149.8 22.3 149 24.5 L 204.5 81 L 177.5 82 L 149.5 87 Q 124.1 94.6 108.5 112 L 74 77.5 L 74 75.5 L 84.5 65 L 86 65 Q 84.9 62.3 87.5 63 L 109.5 45 L 147.5 23 Z " /><path fill="rgb(228,0,47)" stroke="rgb(228,0,47)" stroke-width="1" opacity="0.996078431372549" d="M 198.5 113 L 237.5 113 L 303 178.5 L 300.5 177 L 277.5 168 L 266.5 167 L 265.5 166 L 246.5 166 L 222.5 172 Q 203.3 179.8 190.5 194 L 132 134.5 Q 142.6 121.6 161.5 117 L 171.5 115 L 178.5 115 L 179.5 114 L 197.5 114 L 198.5 113 Z " /><path fill="rgb(228,0,47)" stroke="rgb(228,0,47)" stroke-width="1" opacity="0.996078431372549" d="M 249.5 198 L 262.5 198 L 280.5 203 Q 294.3 209.7 303 221.5 L 312 239.5 L 314 249.5 L 314 262.5 L 311 275.5 L 305 287.5 L 295.5 298 L 214 217.5 L 220.5 210 L 236.5 201 L 249.5 198 Z " /><path fill="rgb(228,0,47)" stroke="rgb(228,0,47)" stroke-width="1" opacity="0.996078431372549" d="M 333.5 209 L 399 274.5 L 399 312.5 L 398 313.5 L 398 332.5 L 397 333.5 L 397 340.5 L 395 350.5 Q 390.4 369.4 377.5 380 L 318 321.5 Q 332.2 308.7 340 289.5 L 346 265.5 L 346 246.5 L 341 224.5 L 333.5 209 Z " /><path fill="rgb(228,0,47)" stroke="rgb(228,0,47)" stroke-width="1" opacity="0.996078431372549" d="M 431.5 307 L 488 363.5 L 488 365.5 L 475 390.5 L 449 426 Q 446.3 424.9 447 427.5 L 435.5 439 L 400 403.5 Q 417.4 387.9 425 362.5 L 430 335.5 L 430 319.5 L 431 318.5 L 431.5 307 Z " /><path fill="rgb(252,165,27)" stroke="rgb(252,165,27)" stroke-width="1" opacity="0.9921568627450981" d="M 22.5 151 L 22 152.5 L 81 211.5 L 81 311.5 L 82 312.5 L 83 343.5 L 87 362.5 L 91 373.5 L 100 389.5 L 110 402 L 122.5 412 L 136.5 420 L 153.5 426 L 168.5 429 L 200.5 430 L 201.5 431 L 300.5 431 L 359 489.5 L 357.5 492 L 330.5 502 L 295.5 510 L 279.5 511 L 278.5 512 L 233.5 512 L 232.5 511 L 224.5 511 L 223.5 510 L 205.5 508 L 181.5 502 Q 155.5 494 133.5 482 Q 92 459 62 424.5 Q 27.5 386 10 330.5 L 3 301.5 L 1 279.5 L 0 278.5 L 0 233.5 L 1 232.5 L 1 223.5 L 2 222.5 L 3 210.5 L 8 188.5 L 17 161.5 L 22.5 151 Z " /><path fill="rgb(252,165,27)" stroke="rgb(252,165,27)" stroke-width="1" opacity="0.9921568627450981" d="M 83.5 167 L 84 169.5 L 83 169.5 L 83.5 167 Z " /><path fill="rgb(252,165,27)" stroke="rgb(252,165,27)" stroke-width="1" opacity="0.9921568627450981" d="M 82.5 175 L 83 180.5 L 82 180.5 L 82.5 175 Z " /><path fill="rgb(252,165,27)" stroke="rgb(252,165,27)" stroke-width="1" opacity="0.9921568627450981" d="M 114.5 175 L 115 178.5 L 114 178.5 L 114.5 175 Z " /><path fill="rgb(252,165,27)" stroke="rgb(252,165,27)" stroke-width="1" opacity="0.9921568627450981" d="M 81.5 191 L 82 204.5 L 81 204.5 L 81.5 191 Z " /><path fill="rgb(252,165,27)" stroke="rgb(252,165,27)" stroke-width="1" opacity="0.9921568627450981" d="M 113.5 191 L 114 201.5 L 113 201.5 L 113.5 191 Z " /><path fill="rgb(252,165,27)" stroke="rgb(252,165,27)" stroke-width="1" opacity="0.9921568627450981" d="M 113.5 244 L 267.5 399 L 194.5 399 L 193.5 398 L 169.5 397 Q 144.7 392.8 131 377.5 Q 123.2 369.3 119 357.5 L 114 334.5 L 114 318.5 L 113 317.5 L 113.5 244 Z " /><path fill="rgb(252,165,27)" stroke="rgb(252,165,27)" stroke-width="1" opacity="0.9921568627450981" d="M 166.5 246 L 167 249.5 L 166 249.5 L 166.5 246 Z " /><path fill="rgb(252,165,27)" stroke="rgb(252,165,27)" stroke-width="1" opacity="0.9921568627450981" d="M 166.5 262 L 167 266.5 L 166 266.5 L 166.5 262 Z " /><path fill="rgb(252,165,27)" stroke="rgb(252,165,27)" stroke-width="1" opacity="0.9921568627450981" d="M 211.5 293 L 218.5 301 L 211.5 293 Z " /><path fill="rgb(252,165,27)" stroke="rgb(252,165,27)" stroke-width="1" opacity="0.9921568627450981" d="M 177.5 300 L 178.5 302 L 177.5 300 Z " /><path fill="rgb(252,165,27)" stroke="rgb(252,165,27)" stroke-width="1" opacity="0.9921568627450981" d="M 221.5 302 L 222.5 304 L 221.5 302 Z " /><path fill="rgb(252,165,27)" stroke="rgb(252,165,27)" stroke-width="1" opacity="0.9921568627450981" d="M 180.5 305 L 181.5 307 L 180.5 305 Z " /><path fill="rgb(252,165,27)" stroke="rgb(252,165,27)" stroke-width="1" opacity="0.9921568627450981" d="M 182.5 308 L 184.5 311 L 182.5 308 Z " /><path fill="rgb(252,165,27)" stroke="rgb(252,165,27)" stroke-width="1" opacity="0.9921568627450981" d="M 185.5 312 L 198.5 326 L 185.5 312 Z " /><path fill="rgb(252,165,27)" stroke="rgb(252,165,27)" stroke-width="1" opacity="0.9921568627450981" d="M 200.5 326 L 202.5 329 L 200.5 326 Z " /><path fill="rgb(252,165,27)" stroke="rgb(252,165,27)" stroke-width="1" opacity="0.9921568627450981" d="M 204.5 329 L 209 332.5 L 207.5 332 L 204.5 329 Z " /><path fill="rgb(252,165,27)" stroke="rgb(252,165,27)" stroke-width="1" opacity="0.9921568627450981" d="M 210.5 333 L 211.5 335 L 210.5 333 Z " /><path fill="rgb(252,165,27)" stroke="rgb(252,165,27)" stroke-width="1" opacity="0.9921568627450981" d="M 245.5 345 L 250 345.5 L 245.5 346 L 245.5 345 Z " /><path fill="rgb(252,165,27)" stroke="rgb(252,165,27)" stroke-width="1" opacity="0.9921568627450981" d="M 262.5 345 L 266 345.5 L 262.5 346 L 262.5 345 Z " /><path fill="rgb(252,165,27)" stroke="rgb(252,165,27)" stroke-width="1" opacity="0.9921568627450981" d="M 333.5 397 L 336 397.5 L 333.5 398 L 333.5 397 Z " /><path fill="rgb(252,165,27)" stroke="rgb(252,165,27)" stroke-width="1" opacity="0.9921568627450981" d="M 310.5 398 L 321 398.5 L 310.5 399 L 310.5 398 Z " /><path fill="rgb(252,165,27)" stroke="rgb(252,165,27)" stroke-width="1" opacity="0.9921568627450981" d="M 342.5 428 L 345 428.5 L 342.5 429 L 342.5 428 Z " /><path fill="rgb(252,165,27)" stroke="rgb(252,165,27)" stroke-width="1" opacity="0.9921568627450981" d="M 331.5 429 L 337 429.5 L 331.5 430 L 331.5 429 Z " /><path fill="rgb(252,165,27)" stroke="rgb(252,165,27)" stroke-width="1" opacity="0.9921568627450981" d="M 306.5 430 L 321 430.5 L 306.5 431 L 306.5 430 Z " /></svg>