<?xml version="1.0" standalone="no"?>
<!DOCTYPE svg PUBLIC "-//W3C//DTD SVG 20010904//EN"
 "http://www.w3.org/TR/2001/REC-SVG-20010904/DTD/svg10.dtd">
<svg version="1.0" xmlns="http://www.w3.org/2000/svg"
 width="500.000000pt" height="500.000000pt" viewBox="0 0 500.000000 500.000000"
 preserveAspectRatio="xMidYMid meet">

<g transform="translate(0.000000,500.000000) scale(0.100000,-0.100000)"
fill="#000000" stroke="none">
<path d="M2295 4869 c-902 -91 -1646 -636 -1990 -1459 -119 -284 -178 -584
-178 -905 0 -386 77 -721 244 -1058 212 -427 538 -774 949 -1009 97 -55 114
-64 236 -118 450 -203 1014 -251 1504 -130 961 238 1657 1015 1797 2005 38
270 16 611 -57 896 -177 693 -655 1266 -1308 1567 -370 171 -816 250 -1197
211z m-449 -717 c6 -4 57 -74 114 -157 57 -82 133 -193 169 -245 37 -52 97
-140 134 -195 38 -55 93 -136 123 -180 31 -44 107 -155 170 -247 63 -92 118
-169 123 -172 9 -6 -41 -64 850 974 101 118 189 218 195 222 15 11 286 10 286
0 0 -5 -145 -177 -322 -384 -178 -206 -443 -514 -589 -684 -146 -170 -269
-315 -273 -322 -4 -7 8 -35 31 -70 45 -66 337 -492 568 -827 87 -126 245 -356
350 -510 265 -387 281 -409 316 -457 l30 -43 -32 -7 c-17 -3 -236 -7 -485 -7
l-452 -2 -205 298 c-112 164 -237 345 -276 403 -40 58 -145 212 -234 342 -89
131 -164 237 -167 237 -3 0 -97 -109 -210 -242 -113 -132 -337 -394 -499 -581
-162 -188 -317 -367 -344 -398 l-49 -58 -139 0 c-112 0 -139 3 -139 14 0 8 66
90 148 183 81 93 226 261 322 373 96 112 249 290 340 395 380 442 425 495 428
508 2 8 -41 78 -95 155 -54 78 -233 338 -398 578 -565 823 -745 1088 -745
1097 0 11 939 21 956 9z"/>
<path d="M1287 3934 c-3 -3 33 -61 81 -127 102 -143 370 -526 637 -909 203
-291 1151 -1647 1232 -1761 26 -38 56 -73 65 -78 22 -12 395 -12 402 0 4 5
-90 146 -207 313 -249 354 -1281 1830 -1580 2259 -113 163 -214 299 -222 303
-21 8 -400 8 -408 0z"/>
</g>
</svg>
